<?xml version="1.0" encoding="UTF-8" standalone="no"?>
<!-- Created with Inkscape (http://www.inkscape.org/) -->

<svg
   preserveAspectRatio="xMaxYMid meet"
   viewBox="0 0 120.26897 58.834427"
   version="1.1"
   id="svg1"
   xmlns="http://www.w3.org/2000/svg"
   xmlns:svg="http://www.w3.org/2000/svg">
  <defs
     id="defs1" />
  <g
     id="layer1"
     transform="translate(-5.8259567,-34.736316)">
    <path
       d="m 35.778557,71.100942 0.83593,1.805609 c 0.133748,0.23406 0.300934,0.334372 0.568432,0.334372 0.23406,0 0.434684,-0.133749 0.534995,-0.36781 l 0.568433,-1.504673 0.735618,1.538111 c 0.133749,0.267497 0.300935,0.334372 0.568432,0.334372 0.234061,0 0.434684,-0.133749 0.534995,-0.36781 l 0.668744,-1.805608 0.869368,1.839046 c 0.100311,0.200623 0.300934,0.334372 0.568432,0.334372 0.23406,0 0.434684,-0.133749 0.534995,-0.36781 l 1.170302,-3.109659 c 2.574664,-0.03344 2.708413,-0.869367 2.708413,-3.57778 0,-3.611218 -0.635307,-3.979027 -2.574664,-3.979027 -0.501558,0 -1.06999,0.03344 -1.738734,0.03344 -0.534996,0 -3.076223,0.06687 -3.544344,0.06687 -10.699903,0 -9.797099,6.754314 -9.797099,9.563039 v 13.107381 h 6.754314 v -7.15556 l 6.68744,0.03344 c 1.604986,0 1.705297,-0.434684 1.705297,-2.006232 0,-2.006232 -0.401246,-2.173418 -1.538111,-2.173418 -0.267497,0 -0.568432,0 -0.936241,0 -0.200624,0 -3.845278,0 -5.918385,0.03344 0,-0.869367 0.03344,-1.705297 0.03344,-2.541227 0,-0.03344 0,-0.06687 0,-0.06687 z m -2.006232,-3.811841 c -1.237177,0 -2.374041,-0.668744 -2.574665,-1.237176 2.173418,-0.568432 3.34372,-1.304051 4.78152,-3.042785 0.334372,0.568432 0.468121,1.06999 0.468121,1.538111 -0.03344,1.772172 -1.136865,2.74185 -2.674976,2.74185 z m -0.869367,-1.504674 c 0.200623,0.468121 0.668744,0.802493 1.203739,0.802493 0.702181,0 1.270613,-0.568432 1.270613,-1.270613 0,-0.334372 -0.133749,-0.635307 -0.334372,-0.869368 -0.367809,0.401247 -1.036553,0.969679 -2.13998,1.337488 z m 9.629913,4.313399 -0.401247,1.036553 -0.434683,-1.003116 z m -2.641539,0 -0.401246,1.036553 -0.434684,-1.003116 z m -2.374041,0 -0.401246,1.036553 -0.468121,-1.003116 z M 50.959027,68.49284 c 1.805609,0 3.243408,-1.437799 3.243408,-3.209971 0,-1.805608 -1.437799,-3.243408 -3.243408,-3.243408 -1.772171,0 -3.209971,1.4378 -3.209971,3.243408 0,1.772172 1.4378,3.209971 3.209971,3.209971 z m -1.370925,-3.711529 c 0.434684,0.100312 0.936242,0.167186 1.504674,0.167186 0.501558,0 0.969679,-0.03344 1.370925,-0.133748 0.100312,0.200623 0.167186,0.434683 0.167186,0.668744 0,0.869367 -0.735618,1.604985 -1.604985,1.604985 -0.869368,0 -1.604986,-0.735618 -1.604986,-1.604985 0,-0.234061 0.06687,-0.468121 0.167186,-0.702182 z m 1.4378,1.972795 c 0.334372,0 0.601869,-0.267497 0.601869,-0.568432 0,-0.334372 -0.267497,-0.60187 -0.601869,-0.60187 -0.334372,0 -0.60187,0.267498 -0.60187,0.60187 0,0.300935 0.267498,0.568432 0.60187,0.568432 z m 3.544343,6.520254 c 0.03344,-3.878715 -0.534996,-4.246524 -3.544343,-4.246524 -1.805609,0 -3.544344,0.23406 -3.544344,2.206855 0.03344,5.784635 0.03344,6.286193 0,12.104266 0,1.939357 1.738735,2.206855 3.544344,2.206855 3.009347,0 3.57778,-0.401247 3.544343,-4.279962 0,-5.115891 0,-2.875599 0,-7.99149 z m 18.925462,8.158676 -2.273729,-3.845278 1.972794,-1.772171 c 0.133749,-0.100312 0.200624,-0.267498 0.200624,-0.434684 0,-0.133748 -0.03344,-0.300934 -0.167186,-0.434683 l -1.839046,-1.939358 1.738734,-1.872483 c 0.23406,-0.23406 0.200623,-0.601869 -0.03344,-0.83593 l -2.407479,-2.340604 c -0.100311,-0.100311 -0.267497,-0.167186 -0.401246,-0.167186 -0.100311,0 -0.167186,0 -0.23406,0.03344 h -4.614334 c -7.088686,0 -9.797099,4.915269 -9.797099,9.596476 0,1.304051 0.300935,2.574665 0.83593,3.71153 1.170302,-0.501558 3.811841,-1.705298 3.811841,-1.705298 0.03344,-0.03344 0.06687,-0.03344 0.133749,-0.03344 0.167186,0 0.300934,0.133749 0.267497,0.334372 l -0.06687,1.939358 3.544343,-2.741851 c 0.06687,-0.03344 0.100311,-0.06687 0.167186,-0.06687 0.167186,0 0.334372,0.167186 0.300935,0.334372 l -0.234061,2.139981 c 0.635307,-0.735619 1.571548,-1.805609 1.571548,-1.839046 0.06688,-0.06687 0.167186,-0.100312 0.234061,-0.100312 0.06687,0 0.133749,0.03344 0.200623,0.100312 0.133749,0.100311 0.133749,0.267497 0.03344,0.401246 0,0 -2.006232,2.307167 -2.240292,2.541227 -0.06687,0.06687 -0.133749,0.100312 -0.200623,0.100312 -0.167186,0 -0.334372,-0.133749 -0.300935,-0.300935 0.03344,-0.401246 0.167186,-1.604985 0.267498,-2.407478 l -3.477469,2.674976 c -0.06687,0.06687 -0.133749,0.06687 -0.200623,0.06687 -0.133749,0 -0.267498,-0.100312 -0.267498,-0.300935 l 0.06687,-2.106543 c -0.769056,0.334372 -2.407479,1.06999 -3.310283,1.471237 1.237176,2.206855 3.544343,3.81184 6.520254,3.912152 -0.334372,0.401246 -0.936242,0.601869 -2.006232,0.601869 -2.608102,0 -2.842162,1.036553 -2.842162,3.243409 0,2.74185 0.702181,4.179649 3.778403,4.179649 4.447148,0 6.587128,-2.440915 7.52337,-5.684323 l 3.042785,-0.936242 c 0.23406,-0.03344 0.367809,-0.23406 0.434684,-0.434683 0.03344,-0.200624 -0.03344,-0.434684 -0.200624,-0.568433 l -2.039669,-1.805609 2.374041,-1.972794 c 0.234061,-0.167186 0.300935,-0.501558 0.133749,-0.735619 z m -2.641539,-11.669582 1.003116,0.969679 -1.036553,1.170302 z m -4.614333,8.426174 c -1.370925,0 -2.50779,-1.705297 -2.50779,-3.778403 0,-2.073107 1.136865,-3.778404 2.50779,-3.778404 1.370925,0 2.474353,1.705297 2.474353,3.778404 0,2.073106 -1.103428,3.778403 -2.474353,3.778403 z m 0,-6.252756 c -0.769055,0 -1.404362,1.103427 -1.404362,2.474353 0,1.370925 0.635307,2.474352 1.404362,2.474352 0.769056,0 1.370925,-1.103427 1.370925,-2.474352 0,-1.370926 -0.601869,-2.474353 -1.370925,-2.474353 z m -0.06687,3.945589 c -0.300935,0 -0.568433,-0.401246 -0.568433,-0.936241 0,-0.501558 0.267498,-0.902805 0.568433,-0.902805 0.300934,0 0.568432,0.401247 0.568432,0.902805 0,0.534995 -0.267498,0.936241 -0.568432,0.936241 z m 4.64777,-1.738734 1.136865,1.203739 -1.237176,1.103428 z m -0.133749,8.727109 -0.03344,-3.94559 1.571549,2.674976 z m 0.769056,3.276845 -1.203739,0.334372 0.23406,-1.203739 z m 20.463555,-5.082454 c 0,-0.902804 0,-4.246524 0,-5.149328 -0.03344,-5.316515 -4.213087,-6.052133 -7.657118,-6.085571 2.307166,-0.100311 2.50779,-1.136864 2.50779,-3.276845 0,-2.74185 -0.702181,-4.146213 -3.778404,-4.146213 -7.489932,0 -8.192113,6.219319 -8.192113,13.274568 0,2.775288 0.03344,5.01558 0.03344,7.690556 0,1.939357 1.738734,2.206855 3.544343,2.206855 3.009348,0 3.544343,-0.401246 3.510906,-4.279961 0,-1.872484 0.03344,-3.310283 0.03344,-4.982143 0,-0.668744 -0.03344,-1.270614 -0.100312,-1.805609 0.167186,-0.534995 0.83593,-0.83593 1.270614,-0.83593 0.635307,0 1.370925,0.668744 1.437799,2.27373 0,1.30405 0,4.580896 0,5.884947 -0.03344,2.942473 0.735619,3.678092 3.577781,3.678092 4.179649,0 3.81184,-1.136865 3.81184,-4.447148 z m -8.59336,-12.973633 c -1.103427,0 -1.972795,-0.902804 -1.972795,-2.006232 0,-0.401246 0.100312,-0.802493 0.334372,-1.103427 0.769056,0.200623 1.237177,0.267497 1.705298,0.267497 0.46812,0 0.936241,-0.06687 1.638422,-0.23406 0.200624,0.300935 0.300935,0.668744 0.300935,1.06999 0,1.103428 -0.902804,2.006232 -2.006232,2.006232 z m 0.03344,-1.805609 c -0.334372,0 -0.601869,0.267498 -0.601869,0.60187 0,0.300935 0.267497,0.568432 0.601869,0.568432 0.334372,0 0.60187,-0.267497 0.60187,-0.568432 0,-0.334372 -0.267498,-0.60187 -0.60187,-0.60187 z m 19.460463,12.639261 c -1.40436,0 -3.343723,-0.23406 -3.343723,-2.039669 -0.03344,-0.367809 -0.03344,-0.769055 -0.03344,-1.203739 1.103423,0 2.073103,0.03344 4.079333,0.03344 1.20374,0 1.37093,-1.103427 1.37093,-2.206855 0,-1.839046 -0.23406,-2.173418 -2.64154,-2.173418 h -2.808723 c 0,-1.738734 0.03344,-3.444031 0.03344,-4.881831 0,-2.875599 0.133749,-4.279961 -2.909036,-4.279961 -1.571548,0 -3.477469,0.23406 -3.477469,2.206855 0.03344,4.982143 0.03344,8.058365 0,12.238015 0,5.851509 4.447148,8.961169 9.997728,8.961169 h 1.73873 c 1.13687,0 1.40436,-0.434684 1.40436,-1.136865 V 80.42992 c 0,-1.404362 -1.37092,-1.504674 -2.74185,-1.504674 -0.23406,0 -0.43468,0 -0.66874,0 z"
       id="text4"
       style="font-size:33.4372px;font-family:'Roar Guroes';-inkscape-font-specification:'Roar Guroes';fill:#ea1f3c;stroke-width:0.208983"
       aria-label="Fight" />
    <path
       d="m 29.912338,36.591665 c 0,-1.457773 -1.623429,-1.789085 -3.279989,-1.789085 -5.102205,0 -7.421389,6.06301 -8.746637,10.237541 -1.292116,-4.174531 -3.6113,-10.237541 -8.7135048,-10.237541 -1.65656,0 -3.2799887,0.331312 -3.2799887,1.789085 0,7.156339 -0.033131,12.15915 -0.066262,19.282358 0,2.120397 2.0541343,2.186659 3.6444319,2.186659 2.8824136,0 3.4125126,-0.430706 3.3793816,-4.207662 0,-1.557167 -0.03313,-2.981808 -0.03313,-4.373318 1.292117,2.418577 2.252922,5.135335 2.981808,7.023814 0.364443,0.927673 1.09333,1.524035 2.120397,1.524035 0.397574,0 1.557166,-0.132525 2.087265,-1.524035 0.695755,-1.888479 1.689691,-4.605237 2.981808,-7.023814 0,1.39151 -0.03313,2.816151 -0.03313,4.373318 -0.03313,3.776956 0.496968,4.207662 3.379382,4.207662 1.590298,0 3.644432,-0.06626 3.644432,-2.186659 -0.03313,-7.123208 -0.06626,-12.126019 -0.06626,-19.282358 z m 18.520335,6.957552 c 0.06626,-0.06626 0.132525,-0.198787 0.132525,-0.298181 L 48.929641,38.1157 c 0.03313,-0.231918 -0.09939,-0.463836 -0.331312,-0.56323 -0.09939,-0.06626 -0.165656,-0.06626 -0.26505,-0.06626 -0.132525,0 -0.265049,0.03313 -0.364443,0.132524 l -3.014939,2.650496 c -1.325248,-0.695755 -2.816152,-1.093329 -4.40645,-1.093329 -1.557166,0 -3.04807,0.397574 -4.340187,1.060198 L 33.722421,38.1157 c -0.09939,-0.06626 -0.231919,-0.132524 -0.364444,-0.132524 -0.09939,0 -0.198787,0.03313 -0.265049,0.06626 -0.231919,0.09939 -0.364443,0.331312 -0.331312,0.56323 l 0.198787,4.008875 c 0.03313,0.132525 0.06626,0.231919 0.09939,0.298181 -1.159592,1.557167 -1.855348,3.478776 -1.855348,5.599173 0,5.135336 4.174531,9.342998 9.342998,9.342998 5.135336,0 9.342999,-4.207662 9.342999,-9.342998 0,-1.822216 -0.5301,-3.511907 -1.457773,-4.96968 z m -0.960805,-1.457773 -0.695755,-0.496968 c -0.26505,-0.231918 -0.530099,-0.463837 -0.795149,-0.662624 l 1.689691,-1.490904 z m -13.385004,-0.596361 -0.06626,-1.590298 1.027067,0.894542 z m 6.559977,0.960804 c 1.855347,0 3.346251,1.490904 3.346251,3.346251 0,1.855348 -1.490904,3.346252 -3.346251,3.346252 -1.855347,0 -3.346251,-1.490904 -3.346251,-3.346252 0,-1.855347 1.490904,-3.346251 3.346251,-3.346251 z m 0,5.532911 c 1.192723,0 2.153528,-0.993936 2.153528,-2.18666 0,-1.192723 -0.960805,-2.186659 -2.153528,-2.186659 -1.225854,0 -2.186659,0.993936 -2.186659,2.186659 0,1.192724 0.960805,2.18666 2.186659,2.18666 z m 0.06626,-2.252922 c 0.496968,0 0.927674,0.364443 0.927674,0.82828 0,0.463837 -0.430706,0.82828 -0.927674,0.82828 -0.530099,0 -0.960804,-0.364443 -0.960804,-0.82828 0,-0.463837 0.430705,-0.82828 0.960804,-0.82828 z m 5.168467,5.897353 -0.960804,2.617365 c -0.06626,0.132525 -0.165656,0.198787 -0.298181,0.198787 -0.06626,0 -0.165656,-0.03313 -0.231918,-0.132524 l -1.888479,-2.48484 h -3.147464 l -1.921609,2.48484 c -0.06626,0.09939 -0.165656,0.132524 -0.231919,0.132524 -0.132524,0 -0.231918,-0.06626 -0.265049,-0.198787 L 35.97534,51.633229 c -0.06626,-0.198787 0.06626,-0.397574 0.26505,-0.397574 h 9.342998 c 0.231918,0 0.364443,0.198787 0.29818,0.397574 z m -1.325247,1.92161 0.629492,-1.722822 -1.921609,0.03313 z m -7.255733,0 1.292117,-1.689691 -1.92161,-0.03313 z m 30.812019,-0.03313 c 0,-0.861411 0,-5.864222 -0.03313,-6.725634 0,-5.433516 -4.43958,-6.063009 -7.885225,-6.063009 -0.993936,0 -1.987872,0 -2.981808,0.06626 -0.496968,-0.397574 -1.325248,-0.463836 -2.617365,-0.463836 -1.789084,0 -3.511907,0.265049 -3.511907,2.186659 0.03313,5.764828 0.03313,7.421388 0,13.186217 0,1.921609 1.722823,2.186659 3.511907,2.186659 2.981808,0 3.545039,-0.397574 3.511908,-4.240793 v -8.216538 c 0.09939,-0.56323 0.795148,-0.894542 1.225854,-0.894542 0.662624,0 1.358379,0.662624 1.424641,2.252921 0,1.325248 0.03313,6.195535 0,7.520783 0,2.915545 0.762018,3.6113 3.57817,3.6113 4.1414,0 3.776957,-1.126461 3.776957,-4.406449 z M 79.443488,40.434884 c 1.060199,0 1.92161,-0.82828 1.92161,-1.888478 0,-1.060198 -0.861411,-1.92161 -1.92161,-1.92161 -1.060198,0 -1.921609,0.861412 -1.921609,1.92161 0,1.060198 0.861411,1.888478 1.921609,1.888478 z m -4.605236,0.331312 c 1.060198,0 1.921609,-0.861411 1.921609,-1.921609 0,-1.060199 -0.861411,-1.92161 -1.921609,-1.92161 -1.060199,0 -1.888479,0.861411 -1.888479,1.92161 0,1.060198 0.82828,1.921609 1.888479,1.921609 z m 4.605236,-3.213726 c 0.530099,0 0.960805,0.430706 0.960805,0.993936 0,0.530099 -0.430706,0.960805 -0.960805,0.960805 -0.530099,0 -0.960805,-0.430706 -0.960805,-0.960805 0,-0.56323 0.430706,-0.993936 0.960805,-0.993936 z m -4.605236,0.364443 c 0.530099,0 0.927673,0.430706 0.927673,0.927674 0,0.496968 -0.397574,0.894542 -0.927673,0.894542 -0.496968,0 -0.894543,-0.397574 -0.894543,-0.894542 0,-0.496968 0.397575,-0.927674 0.894543,-0.927674 z m 4.70463,1.192723 c 0.198787,0 0.364443,-0.165656 0.364443,-0.397574 0,-0.198787 -0.165656,-0.364443 -0.364443,-0.364443 -0.198787,0 -0.364443,0.165656 -0.364443,0.364443 0,0.231918 0.165656,0.397574 0.364443,0.397574 z m -4.505843,0.198787 c 0.198787,0 0.364443,-0.165656 0.364443,-0.364443 0,-0.231918 -0.165656,-0.397574 -0.364443,-0.397574 -0.198787,0 -0.364443,0.165656 -0.364443,0.397574 0,0.198787 0.165656,0.364443 0.364443,0.364443 z m -0.09939,7.189471 c 0,-0.795149 0.26505,-1.027068 0.662624,-1.027068 0.596362,0 1.557166,0.463837 2.584234,0.463837 0.165656,0 0.331312,0 0.496968,0 1.258985,0 2.517971,-0.06626 2.517971,-1.358379 v -3.677563 c 0,-0.231918 -0.03313,-0.463837 -0.132525,-0.629493 -0.397574,0.563231 -0.927674,0.927674 -1.722822,0.927674 -0.795149,0 -1.623429,-0.563231 -1.92161,-1.325248 -0.03313,0 -0.09939,0 -0.132525,0.03313 h -0.231918 c -0.03313,0.03313 -0.06626,0.03313 -0.132525,0.03313 -0.430705,1.09333 -1.292117,1.391511 -2.087265,1.391511 -0.695756,0 -1.325248,-0.231919 -1.557167,-0.364444 -2.78302,0.894543 -4.108268,2.286053 -4.108268,5.731698 0,6.559977 7.520782,2.551102 7.520782,5.234729 0,0.463837 -0.430706,0.563231 -1.126461,0.563231 -0.596362,0 -1.325248,-0.06626 -2.120397,-0.06626 -0.165656,0 -0.331312,0 -0.496968,0 -1.258985,0 -2.517971,0.06626 -2.517971,1.358379 v 3.379383 c 0,0.662624 0.861411,0.728886 1.689691,0.728886 0.894543,0 1.755954,0 2.617365,0 4.340187,0 7.719569,-0.397574 7.719569,-5.300992 0,-7.719569 -7.520782,-3.511907 -7.520782,-6.09614 z m 18.089668,4.837155 c -1.39151,0 -3.31312,-0.231919 -3.31312,-2.021003 -0.03313,-0.364444 -0.03313,-0.762018 -0.03313,-1.192724 1.09333,0 2.054135,0.03313 4.042007,0.03313 1.192723,0 1.358379,-1.09333 1.358379,-2.18666 0,-1.822215 -0.231919,-2.153527 -2.617365,-2.153527 h -2.783021 c 0,-1.722823 0.03313,-3.412514 0.03313,-4.837156 0,-2.849283 0.132525,-4.240793 -2.882414,-4.240793 -1.557166,0 -3.445645,0.231918 -3.445645,2.186659 0.03313,4.936549 0.03313,7.984619 0,12.126019 0,5.79796 4.40645,8.879161 9.906229,8.879161 h 1.722822 c 1.126461,0 1.391511,-0.430705 1.391511,-1.126461 v -3.975743 c 0,-1.391511 -1.35838,-1.490904 -2.716759,-1.490904 -0.231918,0 -0.430705,0 -0.662624,0 z m 13.153103,0.03313 c -1.19273,0 -2.28606,-0.26505 -2.84929,-1.027067 4.20766,-0.861411 6.16241,-2.783021 6.16241,-5.897354 0,-2.617364 -1.82222,-4.240793 -4.40645,-4.240793 -4.73777,0 -8.084013,3.545038 -8.084013,8.746636 0,5.698567 3.975743,8.680374 9.409253,8.680374 h 1.62343 c 1.09333,0 1.35838,-0.430705 1.35838,-1.060198 V 52.75969 c 0,-1.292117 -1.25898,-1.39151 -2.5511,-1.39151 -0.23192,0 -0.43071,0 -0.66262,0 z m 19.91184,-3.677563 c -0.0663,-5.466648 -2.88241,-7.288864 -5.76483,-7.288864 -1.25898,0 -2.38544,0.132525 -2.91554,0.795149 -0.46384,-0.695755 -1.35838,-0.795149 -2.98181,-0.795149 -1.78909,0 -3.51191,0.231918 -3.51191,2.186659 0.0331,5.731698 0.0331,7.355126 0,13.119955 0,1.921609 1.72282,2.186659 3.51191,2.186659 2.98181,0 3.54504,-0.397574 3.51191,-4.240793 v -7.686439 c 0.0663,-0.530099 0.4307,-0.795148 0.62949,-0.795148 0.89454,0 0.72888,2.054134 0.69575,2.816152 0,2.915545 0.76202,3.081201 3.57817,3.081201 3.04807,0 3.27999,-1.159592 3.24686,-3.379382 z"
       id="text1"
       style="font-size:33.1312px;font-family:'Roar Guroes';-inkscape-font-specification:'Roar Guroes';fill:#11b34c;stroke-width:0.207071"
       aria-label="Monster" />
  </g>
</svg>
